<?xml version="1.0" encoding="utf-8"?>
<!-- Generator: Adobe Illustrator 17.1.0, SVG Export Plug-In . SVG Version: 6.00 Build 0)  -->
<!DOCTYPE svg PUBLIC "-//W3C//DTD SVG 1.1//EN" "http://www.w3.org/Graphics/SVG/1.1/DTD/svg11.dtd">
<svg version="1.1" id="Layer_1" xmlns="http://www.w3.org/2000/svg" xmlns:xlink="http://www.w3.org/1999/xlink" x="0px" y="0px"
	 viewBox="0 0 444.151 416.853" enable-background="new 0 0 444.151 416.853" xml:space="preserve">
<circle fill="#3D3D3E" cx="235.725" cy="208.427" r="208.427"/>
<g>
	<defs>
		<circle id="SVGID_1_" cx="235.725" cy="208.427" r="208.427"/>
	</defs>
	<clipPath id="SVGID_2_">
		<use xlink:href="#SVGID_1_"  overflow="visible"/>
	</clipPath>
	<g clip-path="url(#SVGID_2_)">
		<path fill="#FFFFFF" d="M130.022,264.681c1.866,0.8,4.266,2.933,5.199,4.799c-11.465,13.331-22.396,25.596-32.528,25.596
			c-9.998,0-10.932-9.465-7.332-19.73l4.933-14.131H81.629c-13.865,18.397-29.062,33.861-48.126,33.861
			c-28.929,0-42.927-28.662-26.529-56.924c15.198-26.129,50.125-28.129,60.924-3.199l-11.065,4.266
			c-6.532-15.864-27.462-15.464-39.46,4.933c-10.932,18.53-5.199,39.061,16.131,38.927c35.461-0.267,70.256-93.985,100.784-84.12
			l-27.462,79.987c-1.866,5.466-1.6,6.799,0.4,6.799c2.533,0,11.865-8.399,21.863-19.997L130.022,264.681z M86.562,254.549h15.997
			l13.864-39.327C106.425,225.487,96.827,240.418,86.562,254.549z"/>
		<path fill="#FFFFFF" d="M230,264.681c1.866,0.8,4.266,2.933,5.199,4.799c-11.465,13.331-24.662,25.596-36.127,25.596
			c-11.198,0-15.331-9.465-9.465-19.73l17.997-31.328c6.666-11.465-5.732-14.398-31.862,22.53l-15.598,27.196h-14.131l28.662-49.726
			c6.532-11.332-5.599-14.264-31.328,21.73l-16.131,27.996h-13.998l38.527-66.656h13.865l-8.265,14.398
			c8.799-11.065,16.664-15.731,23.863-15.731c7.332,0,12.931,7.066,8.132,16.797c9.199-11.731,17.331-16.797,24.796-16.797
			c7.732,0,13.464,7.599,7.465,18.13l-19.996,35.061c-3.199,5.466-1.466,7.599,1.6,7.599c6.132,0,15.864-9.199,25.862-20.797
			L230,264.681z"/>
		<path fill="#FFFFFF" d="M242.262,267.614l-1.333,2.4c-6.399,11.198-1.333,16.531,7.199,16.531c9.732,0,22.53-9.199,32.528-20.797
			l0.933-1.066c1.866,0.8,4.266,2.933,5.199,4.799c-11.465,13.331-27.062,25.596-42.793,25.596
			c-16.397,0-23.863-13.598-15.198-28.396l14.531-24.929c5.866-10.132,14.798-15.997,25.996-15.997
			c11.332,0,18.53,9.598,11.065,22.396l-2,3.466C267.992,269.613,251.194,271.346,242.262,267.614z M246.262,260.815
			c5.199,1.866,14.131,2.133,20.797-9.199l2-3.466c8.265-14.398-5.866-16.664-13.864-2.933L246.262,260.815z"/>
		<path fill="#FFFFFF" d="M347.044,264.681c1.866,0.8,4.266,2.933,5.199,4.799c-11.465,13.331-24.663,25.596-36.128,25.596
			c-7.066,0-11.332-3.733-11.998-9.065c-6.666,5.466-13.598,9.065-19.197,9.065c-11.198,0-15.331-9.465-9.465-19.73l19.464-33.595
			c5.866-10.132,16.264-15.997,23.73-15.997c5.732,0,10.265,3.333,12.665,7.199l20.397-35.194h13.865l-46.926,81.187
			c-3.199,5.466-1.466,7.599,1.6,7.599c6.132,0,15.864-9.199,25.863-20.797L347.044,264.681z M287.453,278.945
			c-3.199,5.466-1.466,7.599,1.6,7.599c5.866,0,14.398-6.532,22.796-20.263l10.532-18.131h-0.133
			c6.799-12.531-7.999-15.864-15.464-2.933L287.453,278.945z"/>
		<path fill="#FFFFFF" d="M412.498,264.681c1.866,0.8,4.266,2.933,5.199,4.799c-11.465,13.331-24.663,25.596-36.128,25.596
			c-7.066,0-11.332-3.733-11.998-9.065c-6.666,5.466-13.598,9.065-19.197,9.065c-11.198,0-15.331-9.465-9.465-19.73l19.464-33.595
			c5.866-10.132,16.264-15.997,23.73-15.997c9.065,0,15.064,8.132,14.531,13.998h7.865l-22.396,39.194
			c-3.199,5.466-1.466,7.599,1.6,7.599c6.132,0,15.864-9.199,25.863-20.797L412.498,264.681z M352.907,278.945
			c-3.2,5.466-1.466,7.599,1.6,7.599c5.732,0,13.998-6.266,22.396-19.464l10.798-18.93c6.799-12.531-7.999-15.864-15.464-2.933
			L352.907,278.945z"/>
	</g>
</g>
</svg>
