<?xml version="1.0" encoding="utf-8"?>
<!-- Generator: Adobe Illustrator 17.1.0, SVG Export Plug-In . SVG Version: 6.00 Build 0)  -->
<!DOCTYPE svg PUBLIC "-//W3C//DTD SVG 1.1//EN" "http://www.w3.org/Graphics/SVG/1.1/DTD/svg11.dtd">
<svg version="1.1" id="Layer_1" xmlns="http://www.w3.org/2000/svg" xmlns:xlink="http://www.w3.org/1999/xlink" x="0px" y="0px"
	 viewBox="0 0 612 792" enable-background="new 0 0 612 792" xml:space="preserve">
<circle fill="#EDB925" cx="324.8" cy="396" r="287.2"/>
<g>
	<g>
		<defs>
			<circle id="SVGID_1_" cx="324.8" cy="396" r="287.2"/>
		</defs>
		<clipPath id="SVGID_2_">
			<use xlink:href="#SVGID_1_"  overflow="visible"/>
		</clipPath>
		<g clip-path="url(#SVGID_2_)">
			<path fill="#FFFFFF" d="M179.2,473.5c2.6,1.1,5.9,4,7.2,6.6c-15.8,18.4-30.9,35.3-44.8,35.3c-13.8,0-15.1-13-10.1-27.2l6.8-19.5
				h-25.7c-19.1,25.3-40,46.7-66.3,46.7C6.3,515.4-13,475.9,9.6,437c20.9-36,69.1-38.8,83.9-4.4l-15.2,5.9
				c-9-21.9-37.8-21.3-54.4,6.8c-15.1,25.5-7.2,53.8,22.2,53.6C95,498.5,143,369.4,185,383l-37.8,110.2c-2.6,7.5-2.2,9.4,0.6,9.4
				c3.5,0,16.3-11.6,30.1-27.6L179.2,473.5z M119.3,459.6h22l19.1-54.2C146.6,419.5,133.4,440.1,119.3,459.6z"/>
			<path fill="#FFFFFF" d="M316.9,473.5c2.6,1.1,5.9,4,7.2,6.6c-15.8,18.4-34,35.3-49.8,35.3c-15.4,0-21.1-13-13-27.2l24.8-43.2
				c9.2-15.8-7.9-19.8-43.9,31l-21.5,37.5h-19.5l39.5-68.5c9-15.6-7.7-19.7-43.2,29.9l-22.2,38.6H156l53.1-91.8h19.1l-11.4,19.8
				c12.1-15.2,23-21.7,32.9-21.7c10.1,0,17.8,9.7,11.2,23.1c12.7-16.2,23.9-23.1,34.2-23.1c10.7,0,18.6,10.5,10.3,25l-27.6,48.3
				c-4.4,7.5-2,10.5,2.2,10.5c8.4,0,21.9-12.7,35.6-28.7L316.9,473.5z"/>
			<path fill="#FFFFFF" d="M333.8,477.6l-1.8,3.3c-8.8,15.4-1.8,22.8,9.9,22.8c13.4,0,31-12.7,44.8-28.7l1.3-1.5
				c2.6,1.1,5.9,4,7.2,6.6c-15.8,18.4-37.3,35.3-59,35.3c-22.6,0-32.9-18.7-20.9-39.1l20-34.3c8.1-14,20.4-22,35.8-22
				c15.6,0,25.5,13.2,15.2,30.9l-2.8,4.8C369.3,480.3,346.1,482.7,333.8,477.6z M339.3,468.2c7.2,2.6,19.5,2.9,28.7-12.7l2.8-4.8
				c11.4-19.8-8.1-23-19.1-4L339.3,468.2z"/>
			<path fill="#FFFFFF" d="M478.2,473.5c2.6,1.1,5.9,4,7.2,6.6c-15.8,18.4-34,35.3-49.8,35.3c-9.7,0-15.6-5.1-16.5-12.5
				c-9.2,7.5-18.7,12.5-26.5,12.5c-15.4,0-21.1-13-13-27.2l26.8-46.3c8.1-14,22.4-22,32.7-22c7.9,0,14.1,4.6,17.5,9.9l28.1-48.5
				h19.1l-64.7,111.9c-4.4,7.5-2,10.5,2.2,10.5c8.4,0,21.9-12.7,35.6-28.7L478.2,473.5z M396.1,493.2c-4.4,7.5-2,10.5,2.2,10.5
				c8.1,0,19.8-9,31.4-27.9l14.5-25H444c9.4-17.3-11-21.9-21.3-4L396.1,493.2z"/>
			<path fill="#FFFFFF" d="M568.4,473.5c2.6,1.1,5.9,4,7.2,6.6c-15.8,18.4-34,35.3-49.8,35.3c-9.7,0-15.6-5.1-16.5-12.5
				c-9.2,7.5-18.7,12.5-26.5,12.5c-15.4,0-21.1-13-13-27.2l26.8-46.3c8.1-14,22.4-22,32.7-22c12.5,0,20.8,11.2,20,19.3h10.8
				l-30.9,54c-4.4,7.5-2,10.5,2.2,10.5c8.4,0,21.9-12.7,35.6-28.7L568.4,473.5z M486.3,493.2c-4.4,7.5-2,10.5,2.2,10.5
				c7.9,0,19.3-8.6,30.9-26.8l14.9-26.1c9.4-17.3-11-21.9-21.3-4L486.3,493.2z"/>
		</g>
	</g>
</g>
</svg>
